<?xml version="1.0" encoding="utf-8"?>
<!-- Svg Vector Icons : http://www.onlinewebfonts.com/icon -->
<!DOCTYPE svg PUBLIC "-//W3C//DTD SVG 1.1//EN" "http://www.w3.org/Graphics/SVG/1.1/DTD/svg11.dtd">
<svg version="1.1" xmlns="http://www.w3.org/2000/svg" xmlns:xlink="http://www.w3.org/1999/xlink" x="0px" y="0px" viewBox="0 0 1000 1000" enable-background="new 0 0 1000 1000" xml:space="preserve">
<metadata> Svg Vector Icons : http://www.onlinewebfonts.com/icon </metadata>
<g><g transform="translate(0.000000,511.000000) scale(0.100000,-0.100000)"><path d="M4783.3,4998.9c-435.1-69.3-877.8-290.7-1178.1-592.9c-421.6-421.6-625.6-991.4-600.6-1672.9c7.7-207.9,3.8-250.3-27-309.9c-125.1-246.4,84.7-899,346.5-1072.3c59.7-38.5,84.7-77,136.7-207.9C3799.6,303.7,4498.3-231.5,5141.3-141C5726.5-58.2,6252.1,425,6544.7,1145c50.1,125.1,78.9,167.5,129,200.2c71.2,42.3,188.7,192.5,252.2,317.6c119.3,238.7,175.2,627.6,105.9,758.5c-23.1,46.2-30.8,142.5-34.7,456.2c-5.8,423.5-28.9,592.9-117.4,849c-140.5,412-392.7,660.3-746.9,733.4c-75.1,15.4-115.5,32.7-121.3,53.9c-63.5,217.5-256,377.3-552.5,460.1C5335.7,5006.6,4935.3,5022.1,4783.3,4998.9z M4656.2,3797.7c184.8-44.3,517.8-40.4,756.5,9.6c487.1,102,770-17.3,947.1-392.7c102-215.6,144.4-467.8,144.4-856.6c0-531.3-73.2-964.5-223.3-1330.2C6009.5,575.2,5491.7,128.5,5002.7,128.5c-317.6,0-677.6,202.1-943.3,533.3c-286.8,356.1-458.2,787.3-529.4,1332.1c-34.6,256-40.4,802.8-11.5,985.6c77,469.7,254.1,743.1,546.7,837.4C4165.3,3849.7,4479.1,3840.1,4656.2,3797.7z"/><path d="M3955.5,2529.1c-105.9-25-138.6-61.6-119.4-134.8c15.4-61.6,65.4-78.9,159.8-53.9c40.4,11.5,155.9,21.2,256,21.2s215.6-9.6,256-21.2c86.6-23.1,140.5-9.6,169.4,42.4c32.7,63.5-19.3,121.3-136.7,148.2C4417.5,2559.9,4082.5,2558,3955.5,2529.1z"/><path d="M5449.3,2529.1c-100.1-23.1-152.1-86.6-121.3-146.3c28.9-52,82.8-65.4,169.4-42.4c40.4,11.5,155.9,21.2,256,21.2s215.6-9.6,256-21.2c94.3-25,144.4-7.7,159.8,53.9c19.2,73.1-13.5,109.7-119.3,134.8C5932.5,2556,5561,2556,5449.3,2529.1z"/><path d="M4215.4,2240.3c-188.7-67.4-186.7-304.2,3.8-377.3c150.2-55.8,321.5,40.4,321.5,181c0,38.5-7.7,84.7-19.2,103.9C4475.2,2234.6,4325.1,2280.8,4215.4,2240.3z"/><path d="M5624.5,2251.9c-23.1-3.8-69.3-32.7-102-63.5c-109.7-102-63.5-277.2,88.6-327.3c184.8-61.6,363.8,82.8,308,248.3C5884.4,2217.2,5753.5,2278.8,5624.5,2251.9z"/><path d="M4742.8,1420.3c-9.6-17.3,78.9-92.4,157.9-132.8c75.1-40.4,169.4-27,265.6,40.4c96.3,65.5,109.7,105.9,28.9,90.5c-73.1-13.5-309.9-11.6-379.2,3.9C4781.3,1429.9,4748.6,1428,4742.8,1420.3z"/><path d="M4585,887c-15.4-44.3,63.5-117.4,200.2-184.8c107.8-52,134.8-57.7,244.5-50c184.8,15.4,419.7,157.9,390.8,234.9C5403.1,933.2,4602.3,933.2,4585,887z"/><path d="M3501.2-133.3c-213.7-146.3-579.4-335-1012.6-523.6c-585.2-254.1-875.9-419.7-997.2-564.1c-258-304.2-400.4-1070.3-454.3-2410.2c-23.1-583.3-15.4-689.2,67.4-833.5c59.7-102,202.1-232.9,313.8-283l90.5-42.4h3494h3494l109.7,53.9c140.5,69.3,288.8,229.1,336.9,363.8c28.9,88.5,34.7,154,28.9,477.4c-17.3,1361-186.7,2352.4-458.2,2673.9c-121.3,144.4-412,309.9-989.5,560.2c-517.9,225.2-847,398.5-1087.7,571.8c-196.4,142.4-258,109.7-319.6-177.1c-53.9-258-202.1-700.7-321.5-970.2c-119.4-263.7-350.4-666.1-369.6-643c-7.7,7.7-40.4,113.6-73.1,234.8l-59.7,219.5l52,67.4c42.3,55.8,52,92.4,57.7,209.8c11.6,194.4-5.8,265.7-86.6,352.3c-77,86.6-155.9,115.5-313.8,115.5c-148.2,0-232.9-28.9-302.2-100.1c-82.8-84.7-102-146.3-102-313.8c0-152.1,19.2-227.2,77-288.8c36.6-38.5,36.6-42.4-25-263.7c-34.7-125.1-67.4-231-75.1-236.8c-17.3-17.3-256,402.3-361.9,643c-129,288.8-256,664.2-317.6,939.4C3820.7,43.8,3782.2,59.2,3501.2-133.3z M3761-824.4c225.2-695,581.4-1311,1053-1819.2c171.3-184.8,206-184.8,377.3,0c296.5,319.6,531.3,658.4,735.4,1058.8c188.7,373.4,348.4,793.1,421.6,1108.8l23.1,98.2L6575.5-499c109.7-65.4,227.1-130.9,257.9-142.4l55.8-23.1v-209.8c0-155.9-5.8-209.8-23.1-209.8c-13.5,0-71.2-21.2-125.1-48.1c-206-94.3-400.4-336.9-487-606.4c-59.7-192.5-327.3-1478.4-327.3-1580.5c0-117.4,25-184.8,102-265.7c59.7-61.6,227.1-155.9,281.1-155.9c13.5,0,55.8-25,92.4-57.7c111.7-98.2,277.2-67.4,340.7,65.4c38.5,82.8,38.5,113.6,0,196.3c-53.9,113.6-215.6,161.7-311.9,92.4c-84.7-59.7-234.9,19.3-234.9,123.2c0,123.2,292.6,1439.9,352.3,1582.4c75.1,182.9,232.9,350.4,360,385c261.8,71.2,508.2-127.1,623.7-498.6c25-80.9,107.8-448.5,184.8-816.2c104-492.8,136.7-679.5,123.2-702.6c-11.6-19.3-52-50.1-88.6-71.2c-67.4-36.6-71.2-36.6-148.2-1.9c-167.5,77-329.2-19.2-329.2-192.5c0-75.1,9.6-98.2,65.4-154c94.3-94.3,213.7-90.5,329.2,11.5c21.2,19.2,82.8,48.1,134.8,65.5c182.9,59.7,315.7,217.5,317.6,377.3c0,102-304.2,1507.3-358,1649.8c-111.7,298.4-292.6,500.5-517.9,577.5l-86.6,28.9V-938v142.5l102-44.3c53.9-25,223.3-100.1,375.4-167.5c290.7-127.1,554.4-275.3,644.9-361.9c236.8-225.2,402.3-1220.5,421.6-2544.9c5.8-336.9,5.8-336.9-46.2-427.4c-40.4-65.4-78.9-102-154-138.6l-100.1-50H5002.7H1603.1l-100.1,50c-75.1,36.6-113.6,73.2-154,138.6l-52,90.5l5.8,346.5c13.5,1047.2,134.8,1979,302.2,2356.3c63.5,140.5,129,204.1,331.1,325.3c130.9,78.9,841.3,408.1,879.8,408.1c5.8,0,11.5-438.9,11.5-976v-977.9l-86.6-36.6c-50-19.2-119.4-71.2-161.7-121.3c-231-261.8-154-652.6,159.8-820.1c111.7-59.7,354.2-59.7,463.9,0c394.6,207.9,383.1,758.5-17.3,945.2l-88.5,42.3v1037.6v1037.6l179,96.3c96.3,53.9,215.6,123.2,263.7,154l86.6,55.8l25-88.6C3664.8-514.4,3714.8-676.1,3761-824.4z"/></g></g>
</svg>